<svg width="21" height="15" viewBox="0 0 21 15" fill="none" xmlns="http://www.w3.org/2000/svg">
<g clip-path="url(#clip0_29_588)">
<path d="M7.9545 1.24073L10.8938 4.17998C10.902 4.18873 10.9105 4.19723 10.9193 4.20548L10.943 4.22923L10.9453 4.22698C11.0328 4.29823 11.143 4.34298 11.265 4.34298C11.3999 4.34291 11.5292 4.28928 11.6246 4.19388C11.7199 4.09848 11.7735 3.96911 11.7735 3.83423C11.7735 3.65098 11.6758 3.49173 11.5303 3.40223L8.60525 0.477479C8.55797 0.422847 8.49951 0.378999 8.43382 0.348895C8.36814 0.318791 8.29676 0.303133 8.2245 0.302979C8.08964 0.302979 7.9603 0.356553 7.86494 0.451915C7.76958 0.547277 7.716 0.676616 7.716 0.811479C7.716 0.992729 7.8115 1.15098 7.9545 1.24073ZM11.2648 11.4322V5.17248H4.53975C4.503 5.17248 4.46725 5.18173 4.43175 5.19523L1.69 3.61248L1.68775 3.61623C1.59722 3.56827 1.49645 3.54289 1.394 3.54223C1.25489 3.54177 1.11938 3.58651 1.00789 3.66972C0.8964 3.75293 0.814954 3.8701 0.775812 4.0036C0.736671 4.13709 0.741952 4.2797 0.790862 4.40993C0.839772 4.54017 0.929663 4.651 1.047 4.72573L1.04225 4.73398L3.82025 6.33798C3.713 6.80498 3.649 7.37848 3.649 8.00073C3.649 9.31598 3.93225 10.418 4.315 10.7347L2.749 13.4475C2.62802 13.6002 2.56189 13.7891 2.56125 13.984C2.56125 14.2168 2.65376 14.4402 2.81841 14.6048C2.98307 14.7695 3.20639 14.862 3.43925 14.862C3.57364 14.8617 3.70614 14.8303 3.82643 14.7704C3.94672 14.7105 4.05155 14.6236 4.13275 14.5165L4.14775 14.5252L5.9795 11.3525L7.81125 14.525L7.82625 14.5165C7.90746 14.6236 8.01229 14.7105 8.13258 14.7704C8.25286 14.8303 8.38536 14.8617 8.51975 14.862C8.75261 14.862 8.97594 14.7695 9.14059 14.6048C9.30525 14.4402 9.39775 14.2168 9.39775 13.984C9.39775 13.781 9.326 13.5962 9.21 13.4475L8.027 11.3987C8.64375 11.4342 9.3135 11.4537 10.0148 11.4537C10.445 11.4537 10.863 11.4462 11.2648 11.4322Z" fill="#FD7359"/>
<path d="M15.6712 10.7824C15.959 10.6202 16.1992 10.0202 16.3205 9.20619L12.2647 5.15043V10.8219L10.7487 13.4474C10.6277 13.6001 10.5616 13.7891 10.561 13.9839C10.561 14.2168 10.6535 14.4401 10.8181 14.6048C10.9828 14.7694 11.2061 14.8619 11.439 14.8619C11.5734 14.8616 11.7059 14.8303 11.8262 14.7703C11.9464 14.7104 12.0513 14.6235 12.1325 14.5164L12.1475 14.5252L13.9792 11.3524L15.8112 14.5249L15.8262 14.5164C15.9074 14.6235 16.0123 14.7104 16.1325 14.7703C16.2528 14.8303 16.3853 14.8616 16.5197 14.8619C16.7526 14.8619 16.9759 14.7694 17.1406 14.6048C17.3052 14.4401 17.3977 14.2168 17.3977 13.9839C17.3977 13.7809 17.326 13.5962 17.21 13.4474L15.6712 10.7824ZM20.2492 5.41893C20.2492 5.21143 20.147 5.02893 19.9915 4.91518L19.015 3.93868V2.92243C19.015 2.54043 18.7952 2.21318 18.4772 2.04993L17.2137 1.32043L17.2102 1.32643C17.1023 1.26222 16.9829 1.21952 16.8587 1.20068L16.2452 0.138184L14.9707 2.34568L12.9225 4.39368L16.4022 7.87343C16.3993 7.6181 16.3851 7.36302 16.3597 7.10893L17.0462 6.42243H19.515V6.41568L20.0585 5.87218L20.056 5.86968C20.117 5.81152 20.1656 5.74158 20.1988 5.66411C20.232 5.58663 20.2492 5.50323 20.2492 5.41893Z" fill="#FD7359"/>
</g>
<defs>
<clipPath id="clip0_29_588">
<rect width="21" height="15" fill="white"/>
</clipPath>
</defs>
</svg>
