<svg width="19" height="24" viewBox="0 0 19 24" fill="none" xmlns="http://www.w3.org/2000/svg">
<path d="M0 17.8011C1.43366 11.4582 4.49659 5.59877 8.88646 0.801147C8.96451 0.716225 9.05935 0.648432 9.16496 0.602057C9.27057 0.555683 9.38466 0.531738 9.5 0.531738C9.61534 0.531738 9.72943 0.555683 9.83504 0.602057C9.94065 0.648432 10.0355 0.716225 10.1135 0.801147C10.2872 0.988647 10.4302 1.14698 10.5427 1.27615C14.7059 5.9861 17.6146 11.6695 19 17.8011C16.7401 18.2773 14.4475 18.582 12.1417 18.7126L9.96562 23.0626C9.92232 23.149 9.85584 23.2216 9.77361 23.2724C9.69138 23.3232 9.59664 23.3501 9.5 23.3501C9.40336 23.3501 9.30862 23.3232 9.22639 23.2724C9.14416 23.2216 9.07768 23.149 9.03438 23.0626L6.85833 18.7116C4.55252 18.581 2.25988 18.2773 0 17.8011ZM9.5 14.6199C10.3288 14.6199 11.1237 14.2907 11.7097 13.7046C12.2958 13.1186 12.625 12.3237 12.625 11.4949C12.625 10.6661 12.2958 9.87124 11.7097 9.28519C11.1237 8.69914 10.3288 8.3699 9.5 8.3699C8.6712 8.3699 7.87634 8.69914 7.29029 9.28519C6.70424 9.87124 6.375 10.6661 6.375 11.4949C6.375 12.3237 6.70424 13.1186 7.29029 13.7046C7.87634 14.2907 8.6712 14.6199 9.5 14.6199Z" fill="#FFD700"/>
</svg>
